<svg width="142" height="40" viewBox="0 0 142 40" fill="none" xmlns="http://www.w3.org/2000/svg">
<path d="M12.1875 12.1875V7.3125C12.1875 6.45677 12.4128 5.61612 12.8407 4.87504C13.2686 4.13397 13.884 3.51857 14.6251 3.09072C15.3661 2.66286 16.2068 2.43762 17.0625 2.43762C17.9183 2.43763 18.7589 2.66288 19.5 3.09075C20.2411 2.66288 21.0817 2.43763 21.9375 2.43762C22.7932 2.43762 23.6339 2.66286 24.3749 3.09072C25.116 3.51857 25.7314 4.13397 26.1593 4.87504C26.5872 5.61612 26.8125 6.45677 26.8125 7.3125V12.1875H28.0312C29.0009 12.1875 29.9309 12.5727 30.6166 13.2584C31.3023 13.9441 31.6875 14.8741 31.6875 15.8437V31.6875C31.6875 32.8673 31.2597 34.0071 30.4834 34.8954C29.7071 35.7838 28.6349 36.3605 27.4657 36.5186C26.6045 36.3838 25.8198 35.9457 25.2531 35.2834C24.6864 34.621 24.375 33.778 24.375 32.9062V7.3125C24.3753 6.94034 24.2903 6.57305 24.1267 6.23881C23.963 5.90456 23.725 5.61222 23.4309 5.38421C23.1368 5.1562 22.7943 4.99856 22.4298 4.9234C22.0653 4.84823 21.6885 4.85752 21.3281 4.95056C21.7181 5.65012 21.9375 6.45694 21.9375 7.3125V32.9062C21.9375 34.2786 22.3909 35.5436 23.1562 36.5625H12.1875C10.8946 36.5625 9.65459 36.0489 8.74035 35.1346C7.82611 34.2204 7.3125 32.9804 7.3125 31.6875V15.8437C7.3125 14.8741 7.69771 13.9441 8.38339 13.2584C9.06907 12.5727 9.99905 12.1875 10.9688 12.1875H12.1875ZM14.625 7.3125V12.1875H19.5V7.3125C19.5 6.66603 19.2432 6.04605 18.7861 5.58893C18.329 5.13181 17.709 4.875 17.0625 4.875C16.416 4.875 15.796 5.13181 15.3389 5.58893C14.8818 6.04605 14.625 6.66603 14.625 7.3125Z" fill="#FF9900"/>
<path d="M35.39 30L34.948 27.296H36.274C36.6033 27.296 36.8373 27.2527 36.976 27.166C37.1147 27.0793 37.1927 26.906 37.21 26.646C37.2447 26.386 37.262 25.9873 37.262 25.45V13.88H40.746V26.568C40.746 27.4173 40.6767 28.0933 40.538 28.596C40.4167 29.0987 40.122 29.4627 39.654 29.688C39.186 29.896 38.458 30 37.47 30H35.39ZM42.0757 13.88H50.3437V16.584H45.5337V19.912H49.7717L49.3557 22.616H45.5337V27.296H50.3437V30H42.0757V13.88ZM51.4956 30V13.88H54.9536L57.3456 22.668L57.3716 22.824H57.3976V13.88H60.8556V30H57.3196L54.9796 22.408L54.9536 22.226H54.9276V30H51.4956ZM66.524 30.13C65.692 30.13 64.9467 30.052 64.288 29.896C63.6293 29.74 63.118 29.4887 62.754 29.142C62.39 28.778 62.208 28.2927 62.208 27.686V13.88H65.666V26.594C65.666 26.75 65.692 26.8887 65.744 27.01C65.796 27.1313 65.8827 27.2353 66.004 27.322C66.1427 27.3913 66.316 27.426 66.524 27.426C66.7493 27.426 66.9227 27.3913 67.044 27.322C67.1827 27.2353 67.278 27.1313 67.33 27.01C67.3993 26.8713 67.434 26.7327 67.434 26.594V13.88H70.892V27.686C70.892 28.2927 70.7013 28.778 70.32 29.142C69.9387 29.4887 69.4187 29.74 68.76 29.896C68.1013 30.052 67.356 30.13 66.524 30.13ZM71.3297 30L74.1117 21.55L71.4857 13.88H74.9437L76.4517 19.08L76.4777 20.094H76.5297L76.5557 19.08L78.0637 13.88H81.5477L78.9217 21.55L81.7037 30H78.0377L76.5297 24.722L76.5037 23.578H76.4517L76.4257 24.722L74.8917 30H71.3297Z" fill="black"/>
<path d="M90.572 30.234C89.7746 30.234 89.0293 30.1733 88.336 30.052C87.6426 29.948 87.0793 29.7487 86.646 29.454C86.23 29.1593 86.022 28.726 86.022 28.154V24.384L89.48 24.02V26.672C89.48 26.9147 89.532 27.114 89.636 27.27C89.7573 27.4087 90 27.478 90.364 27.478C90.6066 27.478 90.7886 27.4433 90.91 27.374C91.0313 27.2873 91.118 27.1833 91.17 27.062C91.222 26.9233 91.248 26.7673 91.248 26.594V25.112C91.248 24.7133 91.1526 24.3407 90.962 23.994C90.7886 23.63 90.4333 23.3613 89.896 23.188L88.18 22.642C87.4346 22.3993 86.8886 22.0873 86.542 21.706C86.1953 21.3247 86.022 20.7093 86.022 19.86V16.272C86.022 15.5093 86.23 14.946 86.646 14.582C87.062 14.218 87.6166 13.984 88.31 13.88C89.0033 13.7587 89.74 13.698 90.52 13.698C91.2653 13.698 91.95 13.7587 92.574 13.88C93.2153 14.0013 93.7266 14.218 94.108 14.53C94.5066 14.8247 94.706 15.2407 94.706 15.778V19.548L91.248 20.016V17.546C91.248 17.026 91.1786 16.7053 91.04 16.584C90.9013 16.4453 90.6846 16.376 90.39 16.376C90.078 16.376 89.844 16.454 89.688 16.61C89.5493 16.766 89.48 17.1127 89.48 17.65V18.846C89.48 19.1927 89.5406 19.5393 89.662 19.886C89.7833 20.2153 90.0433 20.4493 90.442 20.588L92.392 21.238C93.2066 21.5153 93.796 21.8447 94.16 22.226C94.524 22.6073 94.706 23.2053 94.706 24.02V27.582C94.706 28.31 94.5153 28.8647 94.134 29.246C93.7526 29.6273 93.25 29.8873 92.626 30.026C92.002 30.1647 91.3173 30.234 90.572 30.234ZM95.9546 13.88H99.4126V19.912H101.181V13.88H104.639V30H101.181V22.616H99.4126V30H95.9546V13.88ZM110.323 30.182C108.781 30.182 107.671 29.9047 106.995 29.35C106.319 28.7953 105.981 28.05 105.981 27.114V16.74C105.981 15.8213 106.311 15.0847 106.969 14.53C107.645 13.958 108.763 13.672 110.323 13.672C111.901 13.672 113.019 13.958 113.677 14.53C114.353 15.0847 114.691 15.8213 114.691 16.74V27.088C114.691 28.024 114.353 28.778 113.677 29.35C113.001 29.9047 111.883 30.182 110.323 30.182ZM110.323 27.348C110.705 27.348 110.965 27.2527 111.103 27.062C111.242 26.8713 111.311 26.568 111.311 26.152V17.624C111.311 17.2253 111.242 16.9393 111.103 16.766C110.982 16.5753 110.722 16.48 110.323 16.48C109.942 16.48 109.682 16.5753 109.543 16.766C109.422 16.9393 109.361 17.2167 109.361 17.598V26.178C109.361 26.5767 109.431 26.8713 109.569 27.062C109.708 27.2527 109.959 27.348 110.323 27.348ZM116.039 13.88H122.435C123.18 13.88 123.726 13.9753 124.073 14.166C124.437 14.3393 124.671 14.6167 124.775 14.998C124.896 15.362 124.957 15.8213 124.957 16.376V20.432C124.957 21.056 124.905 21.6453 124.801 22.2C124.697 22.7373 124.428 23.1793 123.995 23.526C123.561 23.8553 122.851 24.02 121.863 24.02H119.497V30H116.039V13.88ZM120.641 21.316C120.97 21.316 121.195 21.2207 121.317 21.03C121.438 20.8393 121.499 20.5187 121.499 20.068V18.04C121.499 17.3813 121.447 16.974 121.343 16.818C121.239 16.662 121.022 16.584 120.693 16.584H119.497V21.316H120.641Z" fill="#FF9900"/>
</svg>
