<svg xmlns="http://www.w3.org/2000/svg" width="142" height="40" fill="none" viewBox="0 0 142 40"><path fill="#F90" d="M12.1875 12.1875V7.3125C12.1875 6.45677 12.4128 5.61612 12.8407 4.87504C13.2686 4.13397 13.884 3.51857 14.6251 3.09072C15.3661 2.66286 16.2068 2.43762 17.0625 2.43762C17.9183 2.43763 18.7589 2.66288 19.5 3.09075C20.2411 2.66288 21.0817 2.43763 21.9375 2.43762C22.7932 2.43762 23.6339 2.66286 24.3749 3.09072C25.116 3.51857 25.7314 4.13397 26.1593 4.87504C26.5872 5.61612 26.8125 6.45677 26.8125 7.3125V12.1875H28.0312C29.0009 12.1875 29.9309 12.5727 30.6166 13.2584C31.3023 13.9441 31.6875 14.8741 31.6875 15.8437V31.6875C31.6875 32.8673 31.2597 34.0071 30.4834 34.8954C29.7071 35.7838 28.6349 36.3605 27.4657 36.5186C26.6045 36.3838 25.8198 35.9457 25.2531 35.2834C24.6864 34.621 24.375 33.778 24.375 32.9062V7.3125C24.3753 6.94034 24.2903 6.57305 24.1267 6.23881C23.963 5.90456 23.725 5.61222 23.4309 5.38421C23.1368 5.1562 22.7943 4.99856 22.4298 4.9234C22.0653 4.84823 21.6885 4.85752 21.3281 4.95056C21.7181 5.65012 21.9375 6.45694 21.9375 7.3125V32.9062C21.9375 34.2786 22.3909 35.5436 23.1562 36.5625H12.1875C10.8946 36.5625 9.65459 36.0489 8.74035 35.1346C7.82611 34.2204 7.3125 32.9804 7.3125 31.6875V15.8437C7.3125 14.8741 7.69771 13.9441 8.38339 13.2584C9.06907 12.5727 9.99905 12.1875 10.9688 12.1875H12.1875ZM14.625 7.3125V12.1875H19.5V7.3125C19.5 6.66603 19.2432 6.04605 18.7861 5.58893C18.329 5.13181 17.709 4.875 17.0625 4.875C16.416 4.875 15.796 5.13181 15.3389 5.58893C14.8818 6.04605 14.625 6.66603 14.625 7.3125Z"/><path fill="#000" d="M34.345 30L33.954 27.608H35.127C35.4183 27.608 35.6253 27.5697 35.748 27.493C35.8707 27.4163 35.9397 27.263 35.955 27.033C35.9857 26.803 36.001 26.4503 36.001 25.975V15.74H39.083V26.964C39.083 27.7153 39.0217 28.3133 38.899 28.758C38.7917 29.2027 38.531 29.5247 38.117 29.724C37.703 29.908 37.059 30 36.185 30H34.345ZM40.2592 15.74H47.5732V18.132H43.3182V21.076H47.0672L46.6992 23.468H43.3182V27.608H47.5732V30H40.2592V15.74ZM48.5922 30V15.74H51.6512L53.7672 23.514L53.7902 23.652H53.8132V15.74H56.8722V30H53.7442L51.6742 23.284L51.6512 23.123H51.6282V30H48.5922ZM61.8866 30.115C61.1506 30.115 60.4913 30.046 59.9086 29.908C59.3259 29.77 58.8736 29.5477 58.5516 29.241C58.2296 28.919 58.0686 28.4897 58.0686 27.953V15.74H61.1276V26.987C61.1276 27.125 61.1506 27.2477 61.1966 27.355C61.2426 27.4623 61.3193 27.5543 61.4266 27.631C61.5493 27.6923 61.7026 27.723 61.8866 27.723C62.0859 27.723 62.2393 27.6923 62.3466 27.631C62.4693 27.5543 62.5536 27.4623 62.5996 27.355C62.6609 27.2323 62.6916 27.1097 62.6916 26.987V15.74H65.7506V27.953C65.7506 28.4897 65.5819 28.919 65.2446 29.241C64.9073 29.5477 64.4473 29.77 63.8646 29.908C63.2819 30.046 62.6226 30.115 61.8866 30.115ZM66.1378 30L68.5988 22.525L66.2758 15.74H69.3348L70.6688 20.34L70.6918 21.237H70.7378L70.7608 20.34L72.0948 15.74H75.1768L72.8538 22.525L75.3148 30H72.0718L70.7378 25.331L70.7148 24.319H70.6688L70.6458 25.331L69.2888 30H66.1378Z"/><path fill="#F90" d="M83.1598 30.207C82.4545 30.207 81.7951 30.1533 81.1818 30.046C80.5685 29.954 80.0701 29.7777 79.6868 29.517C79.3188 29.2563 79.1348 28.873 79.1348 28.367V25.032L82.1938 24.71V27.056C82.1938 27.2707 82.2398 27.447 82.3318 27.585C82.4391 27.7077 82.6538 27.769 82.9758 27.769C83.1905 27.769 83.3515 27.7383 83.4588 27.677C83.5661 27.6003 83.6428 27.5083 83.6888 27.401C83.7348 27.2783 83.7578 27.1403 83.7578 26.987V25.676C83.7578 25.3233 83.6735 24.9937 83.5048 24.687C83.3515 24.365 83.0371 24.1273 82.5618 23.974L81.0438 23.491C80.3845 23.2763 79.9015 23.0003 79.5948 22.663C79.2881 22.3257 79.1348 21.7813 79.1348 21.03V17.856C79.1348 17.1813 79.3188 16.683 79.6868 16.361C80.0548 16.039 80.5455 15.832 81.1588 15.74C81.7721 15.6327 82.4238 15.579 83.1138 15.579C83.7731 15.579 84.3788 15.6327 84.9308 15.74C85.4981 15.8473 85.9505 16.039 86.2878 16.315C86.6405 16.5757 86.8168 16.9437 86.8168 17.419V20.754L83.7578 21.168V18.983C83.7578 18.523 83.6965 18.2393 83.5738 18.132C83.4511 18.0093 83.2595 17.948 82.9988 17.948C82.7228 17.948 82.5158 18.017 82.3778 18.155C82.2551 18.293 82.1938 18.5997 82.1938 19.075V20.133C82.1938 20.4397 82.2475 20.7463 82.3548 21.053C82.4621 21.3443 82.6921 21.5513 83.0448 21.674L84.7698 22.249C85.4905 22.4943 86.0118 22.7857 86.3338 23.123C86.6558 23.4603 86.8168 23.9893 86.8168 24.71V27.861C86.8168 28.505 86.6481 28.9957 86.3108 29.333C85.9735 29.6703 85.5288 29.9003 84.9768 30.023C84.4248 30.1457 83.8191 30.207 83.1598 30.207ZM87.9213 15.74H90.9803V21.076H92.5443V15.74H95.6033V30H92.5443V23.468H90.9803V30H87.9213V15.74ZM100.632 30.161C99.2676 30.161 98.2863 29.9157 97.6883 29.425C97.0903 28.9343 96.7913 28.275 96.7913 27.447V18.27C96.7913 17.4573 97.0826 16.8057 97.6653 16.315C98.2633 15.809 99.2523 15.556 100.632 15.556C102.028 15.556 103.017 15.809 103.599 16.315C104.197 16.8057 104.496 17.4573 104.496 18.27V27.424C104.496 28.252 104.197 28.919 103.599 29.425C103.001 29.9157 102.012 30.161 100.632 30.161ZM100.632 27.654C100.97 27.654 101.2 27.5697 101.322 27.401C101.445 27.2323 101.506 26.964 101.506 26.596V19.052C101.506 18.6993 101.445 18.4463 101.322 18.293C101.215 18.1243 100.985 18.04 100.632 18.04C100.295 18.04 100.065 18.1243 99.9423 18.293C99.8349 18.4463 99.7813 18.6917 99.7813 19.029V26.619C99.7813 26.9717 99.8426 27.2323 99.9653 27.401C100.088 27.5697 100.31 27.654 100.632 27.654ZM105.688 15.74H111.346C112.005 15.74 112.488 15.8243 112.795 15.993C113.117 16.1463 113.324 16.3917 113.416 16.729C113.523 17.051 113.577 17.4573 113.577 17.948V21.536C113.577 22.088 113.531 22.6093 113.439 23.1C113.347 23.5753 113.109 23.9663 112.726 24.273C112.343 24.5643 111.714 24.71 110.84 24.71H108.747V30H105.688V15.74ZM109.759 22.318C110.05 22.318 110.25 22.2337 110.357 22.065C110.464 21.8963 110.518 21.6127 110.518 21.214V19.42C110.518 18.8373 110.472 18.477 110.38 18.339C110.288 18.201 110.096 18.132 109.805 18.132H108.747V22.318H109.759ZM114.56 15.74H120.218C120.877 15.74 121.36 15.8243 121.667 15.993C121.989 16.1463 122.196 16.3917 122.288 16.729C122.395 17.051 122.449 17.4573 122.449 17.948V21.536C122.449 22.088 122.403 22.6093 122.311 23.1C122.219 23.5753 121.981 23.9663 121.598 24.273C121.215 24.5643 120.586 24.71 119.712 24.71H117.619V30H114.56V15.74ZM118.631 22.318C118.922 22.318 119.122 22.2337 119.229 22.065C119.336 21.8963 119.39 21.6127 119.39 21.214V19.42C119.39 18.8373 119.344 18.477 119.252 18.339C119.16 18.201 118.968 18.132 118.677 18.132H117.619V22.318H118.631ZM123.432 15.74H130.746V18.132H126.491V21.076H130.24L129.872 23.468H126.491V27.608H130.746V30H123.432V15.74ZM131.765 15.74H137.423C138.082 15.74 138.565 15.8243 138.872 15.993C139.194 16.1463 139.401 16.3917 139.493 16.729C139.6 17.051 139.654 17.4573 139.654 17.948V21.099C139.654 21.651 139.608 22.1723 139.516 22.663C139.424 23.1383 139.186 23.5293 138.803 23.836C138.42 24.1273 137.791 24.273 136.917 24.273H134.824V30H131.765V15.74ZM137.63 30.529L135.1 24.089L137.147 24.043L138.021 24.25L138.159 24.365L140.482 29.402L137.63 30.529ZM135.836 21.881C136.127 21.881 136.327 21.7967 136.434 21.628C136.541 21.4593 136.595 21.1757 136.595 20.777V19.42C136.595 18.8373 136.549 18.477 136.457 18.339C136.365 18.201 136.173 18.132 135.882 18.132H134.824V21.881H135.836Z"/></svg>